<?xml version="1.0" encoding="utf-8"?>
<!-- Generator: Adobe Illustrator 23.1.0, SVG Export Plug-In . SVG Version: 6.00 Build 0)  -->
<svg version="1.1" id="레이어_1" xmlns="http://www.w3.org/2000/svg" xmlns:xlink="http://www.w3.org/1999/xlink" x="0px"
	 y="0px" viewBox="0 0 299.6 87.99" style="enable-background:new 0 0 299.6 87.99;" xml:space="preserve">
<style type="text/css">
	.st0{fill:#55A3A3;}
	.st1{fill:#00696D;}
	.st2{fill:#F18D00;}
</style>
<g>
	<g>
		<g>
			<path class="st0" d="M6.93,45.93c0,21.64,17.61,39.26,39.26,39.26c21.64,0,39.26-17.61,39.26-39.26
				c0-21.65-17.62-39.26-39.26-39.26C24.54,6.67,6.93,24.29,6.93,45.93z M7.51,45.93c0-21.33,17.36-38.68,38.68-38.68
				c21.32,0,38.67,17.36,38.67,38.68c0,21.32-17.35,38.67-38.67,38.67C24.87,84.6,7.51,67.26,7.51,45.93z"/>
			<path class="st0" d="M9.65,45.93c0,20.15,16.39,36.55,36.54,36.55c20.15,0,36.54-16.39,36.54-36.55
				c0-20.14-16.39-36.53-36.54-36.53C26.04,9.39,9.65,25.78,9.65,45.93z M11.3,45.93c0-19.23,15.65-34.88,34.88-34.88
				c19.23,0,34.88,15.65,34.88,34.88c0,19.24-15.65,34.89-34.88,34.89C26.95,80.81,11.3,65.16,11.3,45.93z"/>
			<path class="st0" d="M25.58,54.66c-1.15-2.68-1.77-5.63-1.77-8.74c0-12.33,10.04-22.37,22.38-22.37
				c12.34,0,22.38,10.04,22.38,22.37c0,1.77-0.2,3.49-0.59,5.15l0.45,0.48c0.46-1.8,0.7-3.68,0.7-5.63
				C69.12,33.28,58.83,23,46.19,23c-12.65,0-22.93,10.29-22.93,22.93c0,3.17,0.64,6.18,1.81,8.92L25.58,54.66z"/>
			<g>
				<path class="st0" d="M55,74.14v-5.79h-0.65v5.78h-1.31V64.9h1.31v2.51H55V64.9h1.32v9.25H55z"/>
				<path class="st0" d="M65.83,67.83h-1.17v3.01h-1.5V64.9h1.5v1.99h1.17V67.83z"/>
				<path class="st0" d="M47.8,67.83h-1.17v3.01h-1.5V64.9h1.5v1.99h1.17V67.83z"/>
				<path class="st0" d="M38.82,68.8h-1.17v5.34h-1.5V64.9h1.5v2.97h1.17V68.8z"/>
				<path class="st0" d="M33.81,68.48c0,1.07-0.12,2.57-0.87,2.57c-0.75,0-0.87-1.5-0.87-2.57c0-1.07,0.13-2.57,0.87-2.57
					C33.69,65.91,33.81,67.41,33.81,68.48z M32.94,64.93c-1.8,0-2.4,2.06-2.4,3.55c0,1.49,0.6,3.56,2.4,3.56
					c1.79,0,2.4-2.06,2.4-3.56C35.34,66.99,34.73,64.93,32.94,64.93z"/>
				<path class="st0" d="M42.11,68.39L42.11,68.39L42.11,68.39c0.08,0.26,1.12,1.38,1.97,1.8l0,0l0.65-0.79
					c-0.62-0.37-1.09-0.86-1.42-1.47c-0.33-0.6-0.49-1.38-0.49-2.3v-0.63h-1.54v0.63c0.01,0.93-0.15,1.7-0.48,2.3
					c-0.33,0.61-0.81,1.1-1.42,1.47l0.65,0.79l0,0C40.89,69.77,42.03,68.66,42.11,68.39L42.11,68.39L42.11,68.39L42.11,68.39z"/>
				<path class="st0" d="M50.74,68.73c0.36,1.04,1.57,2.03,1.71,2.12l0.72-0.73c-0.39-0.29-0.9-0.76-1.22-1.35
					c-0.32-0.6-0.63-1.28-0.63-2.3v-0.54h1.21v-0.92H48.7v0.92h1.11v0.54c0,1.03-0.11,1.71-0.42,2.3c-0.32,0.59-0.71,1.06-1.1,1.35
					l0.72,0.73C49.15,70.76,50.39,69.78,50.74,68.73z"/>
				<path class="st0" d="M41.58,73.93c-0.23,0-0.43-0.19-0.43-0.41v-2.78h1.5v2.23h4.12v0.96H41.58z"/>
				<path class="st0" d="M59.34,73.93c-0.23,0-0.42-0.19-0.42-0.41v-2.78h1.5v2.23h4.12v0.96H59.34z"/>
				<path class="st0" d="M57.99,64.99v4.21c0,0.22,0.19,0.41,0.43,0.41h4.01v-0.96h-2.94v-2.73h2.5v-0.93H57.99z"/>
			</g>
			<g>
				<path class="st0" d="M18.44,47.53l-2.61-0.41v-0.02l2.57-0.6L18.44,47.53z M21.16,49.35l-0.06-1.41l-1.49-0.25l-0.06-1.45
					l1.47-0.36l-0.06-1.41l-7.1,1.96l0.06,1.51L21.16,49.35z"/>
				<path class="st0" d="M19.18,42.67c0.66-0.51,0.91-0.82,0.98-1.2c0.06-0.35-0.14-0.63-0.48-0.69c-1.03-0.19-2.16,1.64-3.87,1.33
					c-1-0.19-1.64-1.11-1.45-2.14c0.08-0.45,0.3-0.86,0.68-1.29l1.32,0.23c-0.51,0.56-0.67,0.82-0.73,1.13
					c-0.06,0.35,0.09,0.63,0.38,0.68c0.83,0.15,2.22-1.71,3.88-1.4c1.12,0.2,1.82,1.14,1.63,2.18c-0.09,0.5-0.34,0.93-0.84,1.44
					L19.18,42.67z"/>
				<path class="st0" d="M20.42,35.49L18.24,34l0-0.01l2.59,0.56L20.42,35.49z M22.1,38.29l0.55-1.3l-1.24-0.87l0.57-1.32l1.48,0.3
					l0.55-1.3l-7.26-1.26l-0.59,1.39L22.1,38.29z"/>
				<path class="st0" d="M19.18,28.08L20,27.01l4.26,1.07l0.01-0.02l-3.19-2.45l0.83-1.09l5.66,4.34l-0.77,1.01l-4.45-1.12
					l-0.01,0.02l3.35,2.55l-0.84,1.09L19.18,28.08z"/>
				<g>
					<path class="st0" d="M28.61,18.79l2.91-1.71l0.62,1.06l-1.65,0.97l0.85,1.45l1.6-0.93l0.63,1.06l-1.6,0.93l1.5,2.58l-1.26,0.73
						L28.61,18.79z"/>
					<path class="st0" d="M36.87,18.72c-0.4-1.34-0.4-2.24,0.35-2.47c0.83-0.24,1.29,0.68,1.65,1.86c0.49,1.64,0.3,2.28-0.35,2.47
						C37.76,20.82,37.28,20.08,36.87,18.72z M35.43,19.09c0.77,2.56,2.31,3.2,3.5,2.84c1.05-0.32,2.17-1.56,1.37-4.23
						c-0.77-2.56-2.34-3.13-3.48-2.78C35.62,15.28,34.73,16.77,35.43,19.09z"/>
					<path class="st0" d="M44.38,13.69l0.13,4.91c0.02,0.57,0.3,0.97,0.82,0.95c0.57-0.02,0.78-0.42,0.77-1.07l-0.14-4.82l1.46-0.05
						l0.13,4.69c0.05,1.57-0.65,2.56-2.17,2.6c-1.34,0.03-2.27-0.68-2.32-2.45l-0.13-4.71L44.38,13.69z"/>
					<path class="st0" d="M51.33,13.99l1.31,0.31l0.77,4.32l0.02,0.01l0.92-3.92l1.33,0.31l-1.62,6.95l-1.24-0.29l-0.82-4.51
						l-0.02,0l-0.96,4.1l-1.34-0.31L51.33,13.99z"/>
					<path class="st0" d="M57.92,22.35l2.24-4.16l0.38,0.19c0.88,0.48,0.65,1.54,0.01,2.73c-0.67,1.26-1.39,1.9-2.32,1.4
						L57.92,22.35z M56.06,22.72l1.74,0.94c1.75,0.93,3.32-0.47,4.1-1.92c0.82-1.53,0.99-3.45-0.79-4.41l-1.67-0.9L56.06,22.72z"/>
					<path class="st0" d="M64.23,24.85l2.11-1.59l0.02,0.01l-1.36,2.27L64.23,24.85z M61.04,25.54l1.05,0.94l1.22-0.89l1.08,0.96
						l-0.76,1.31l1.05,0.94l3.52-6.47l-1.13-1.01L61.04,25.54z"/>
					<path class="st0" d="M70.74,27.02l-0.87-1.18l1-0.73l2.59,3.55l-1,0.72l-0.86-1.19l-4.76,3.49l-0.86-1.18L70.74,27.02z"/>
					<path class="st0" d="M74.96,31.43l0.63,1.32l-6.44,3.06l-0.63-1.32L74.96,31.43z"/>
					<path class="st0" d="M73.81,38.26c1.36-0.33,2.26-0.28,2.44,0.5c0.2,0.84-0.76,1.25-1.96,1.53c-1.67,0.39-2.29,0.17-2.44-0.49
						C71.66,39.02,72.43,38.59,73.81,38.26z M73.53,36.8c-2.6,0.61-3.33,2.11-3.05,3.32c0.25,1.06,1.43,2.26,4.14,1.61
						c2.6-0.61,3.26-2.14,2.98-3.3C77.32,37.21,75.89,36.24,73.53,36.8z"/>
					<path class="st0" d="M78.44,44.71l-0.05,1.34l-4.09,1.61v0.02l4.03,0.13l-0.05,1.38l-7.13-0.24l0.04-1.27l4.27-1.68v-0.02
						l-4.2-0.14l0.04-1.37L78.44,44.71z"/>
				</g>
			</g>
		</g>
		<path class="st1" d="M54.72,29.1c-1.69-1.69-4.03-2.74-6.62-2.74c-1.85,0-3.55,0.53-5,1.45l0,0c-1.33,0.78-2.84,1.99-4.64,3.88
			c-2.45,2.57-8.64,11.91-11.08,15.34c-1.76,2.47-4.73,6.78-6.01,8.99c-1.57,2.71-2.89,4.27-2.14,5.1c1.31,1.45,2.85-2.46,3.17-0.89
			c0.12,0.59-2.81,5.13-4.9,8.86c-1.08,1.93-0.05,4.95,4.06,2.45c0,0,2.38-2.03,4.54-4.21c3.03-3.03,5.73-6.58,9.17-9.39
			c2.5-2.05,6.37-6.5,8.88-8.92c1.81-1.75,1.07-2.58,2.63-4.46c0.81-0.97,1.72-1.83,2.64-2.59c1.56-0.89,2.41-0.11,3.62,1.17
			c1.76,1.88,4.48,5.26,6.22,6.88c2.41,2.23,5.94,5.81,8.03,8.17c0.22,0.25,2.2,2.44,4.12,0.62c0.81-0.78,0.44-2.01-0.3-3.26
			l0.01-0.01c0,0,0.13,0.12,0.26,0.01l0.01-0.01c0.53-0.53-1.48-3.1-2.42-5.2c-7.36-14.14-12.18-19.69-14.94-21.89"/>
		<path class="st2" d="M59.39,57.27c-0.26,0.83-3.13,0.84-5.75,1.1c-2.27,0.22-8.59,0.75-10.45,0.82c-2.5,0.08-6.66,0.48-8.54,0.22
			c-3.76-0.54-4.75-2.02-5.47-3.31c-1.37-2.45-1.16-6.46,0.2-7.19c1.4-0.75,3,0.33,5.94,0.27c1.29-0.02,2.26,0.04,3.62,0.18
			c1.94,0.21,3.93,0.31,5.88,0.69c2.78,0.54,6.85,0.89,9.77,1.15c2.17,0.18,4.48,0.87,4.48,0.87c3.61,1.21,2.3,2.97,1.24,3.38
			c-0.29,0.12-1.64,0.58-1.64,0.87C58.69,56.62,59.44,57.08,59.39,57.27z"/>
	</g>
	<g>
		<path class="st1" d="M109.21,68.83h-3.37l1.78-6.22h0.04L109.21,68.83z M110.82,74.7h3.6l-4.81-14.97h-3.86l-4.98,14.97h3.39
			l1.03-3.35h4.7L110.82,74.7z"/>
		<path class="st1" d="M122.17,66.34c-0.9-0.37-1.74-0.6-2.72-0.6c-0.88,0-1.26,0.43-1.26,0.81c0,0.69,0.49,0.93,2.33,1.61
			c1.16,0.43,2.34,1.16,2.34,3.26c0,2.49-1.87,3.46-4.12,3.46c-0.98,0-2.48-0.11-3.67-0.54l0.09-2.62c0.82,0.49,1.85,0.77,2.79,0.77
			c1.59,0,1.69-0.56,1.69-1.05c0-0.5-0.88-0.71-2.34-1.31c-1.18-0.49-2.34-1.44-2.34-3.43c0-1.21,0.86-3.35,4.18-3.35
			c1.39,0,2.55,0.25,3.11,0.45L122.17,66.34z"/>
		<path class="st1" d="M130.56,69.96c0,2.73-1.71,2.77-2.01,2.77c-0.28,0-1.46,0-1.46-1.46c0-1.87,2.12-1.95,3.47-1.95V69.96z
			 M125.37,66.58c1.33-0.8,2.25-0.99,3.11-0.99c0.49,0,2.08,0,2.08,2.15h-1.03c-1.18,0-5.54,0.02-5.54,3.75
			c0,2.04,1.37,3.39,3.45,3.39c1.61,0,2.92-1.03,3.07-1.71h0.04l0.09,1.54h3.09c-0.07-0.75-0.08-1.5-0.08-3.15v-4.08
			c0-2.48-0.9-4.12-4.83-4.12c-1.22,0-2.72,0.43-3.6,0.71L125.37,66.58z"/>
		<path class="st1" d="M141.93,67.82c0-1.39-0.63-1.76-1.31-1.76c-1.09,0-1.48,0.94-1.48,2.38v6.26h-3.39v-8.84
			c0-1.07-0.02-1.76-0.09-2.34h3.09c0.04,0.5,0.08,1.12,0.08,1.87h0.04c0.51-1.22,1.37-2.04,3.15-2.04c2.47,0,3.28,1.79,3.28,4.03
			v7.32h-3.39V67.82z"/>
		<path class="st1" d="M165.29,62.86h-0.04l-3.37,11.84h-2.32l-3.24-11.84h-0.04V74.7h-3.22V59.73h5.3l2.42,9.63h0.04l2.62-9.63
			h5.06V74.7h-3.22V62.86z"/>
		<path class="st1" d="M173.83,68.16c0-0.6,0-2.75,1.74-2.75c1.39,0,1.76,1.34,1.76,2.75H173.83z M180.42,69.2
			c0-5.84-3.84-5.84-4.85-5.84c-3.2,0-4.96,2.72-4.96,5.73c0,3.41,1.74,5.79,5.66,5.79c1.16,0,2.45-0.24,3.54-0.65l-0.06-2.55
			c-0.84,0.45-2,0.88-3.16,0.88c-1.91,0-2.77-1.22-2.77-2.55h6.59V69.2z"/>
		<path class="st1" d="M185.44,69.12c0-1.77,0.13-3.45,1.63-3.45c1.38,0,1.69,1.68,1.69,3.45c0,1.29-0.3,3.31-1.69,3.31
			C185.52,72.43,185.44,70.28,185.44,69.12z M192.16,58.61h-3.39v6.57h-0.04c-0.41-1.01-1.31-1.82-2.87-1.82
			c-2.81,0-3.93,2.49-3.93,5.49c0,3.56,1.42,6.03,3.93,6.03c1.95,0,2.7-1.27,3.05-1.95h0.04c0,0.77,0.04,1.35,0.09,1.78h3.22
			c-0.04-0.51-0.09-1.09-0.09-2.51V58.61z"/>
		<path class="st1" d="M194.41,63.52h3.39V74.7h-3.39V63.52z M194.41,58.61h3.39v3h-3.39V58.61z"/>
		<path class="st1" d="M207.95,74.41c-0.99,0.25-1.99,0.47-3.07,0.47c-4.31,0-5.28-3.61-5.28-5.64c0-3.44,1.98-5.88,5.54-5.88
			c1.12,0,1.72,0.28,2.7,0.53l-0.17,2.56c-0.62-0.23-1.27-0.48-1.97-0.48c-2.57,0-2.57,2.83-2.57,3.27c0,2.36,1.46,3.12,2.75,3.12
			c0.71,0,1.35-0.26,1.97-0.5L207.95,74.41z"/>
		<path class="st1" d="M215.48,69.96c0,2.73-1.72,2.77-2.02,2.77c-0.28,0-1.46,0-1.46-1.46c0-1.87,2.12-1.95,3.48-1.95V69.96z
			 M210.28,66.58c1.33-0.8,2.25-0.99,3.11-0.99c0.5,0,2.09,0,2.09,2.15h-1.03c-1.19,0-5.54,0.02-5.54,3.75
			c0,2.04,1.37,3.39,3.46,3.39c1.61,0,2.92-1.03,3.06-1.71h0.05l0.09,1.54h3.09c-0.07-0.75-0.09-1.5-0.09-3.15v-4.08
			c0-2.48-0.9-4.12-4.83-4.12c-1.22,0-2.72,0.43-3.6,0.71L210.28,66.58z"/>
		<path class="st1" d="M220.77,58.61h3.39V74.7h-3.39V58.61z"/>
		<path class="st1" d="M242.1,63.12c-0.54-0.31-1.44-0.86-3.05-0.86c-2.36,0-3.86,1.91-3.86,4.93c0,2.93,1.69,4.9,3.92,4.9
			c1.72,0,2.72-0.64,3.07-0.8l0.13,3.13c-0.6,0.19-1.84,0.54-3.76,0.54c-4.1,0-6.97-3.08-6.97-7.81c0-5.49,3.69-7.69,6.74-7.69
			c2.23,0,3.37,0.49,3.95,0.73L242.1,63.12z"/>
		<path class="st1" d="M246.82,68.16c0-0.6,0-2.75,1.73-2.75c1.39,0,1.76,1.34,1.76,2.75H246.82z M253.41,69.2
			c0-5.84-3.84-5.84-4.85-5.84c-3.2,0-4.95,2.72-4.95,5.73c0,3.41,1.74,5.79,5.66,5.79c1.16,0,2.44-0.24,3.54-0.65l-0.07-2.55
			c-0.83,0.45-1.99,0.88-3.15,0.88c-1.91,0-2.76-1.22-2.76-2.55h6.58V69.2z"/>
		<path class="st1" d="M261.37,67.82c0-1.39-0.62-1.76-1.31-1.76c-1.09,0-1.48,0.94-1.48,2.38v6.26h-3.39v-8.84
			c0-1.07-0.02-1.76-0.08-2.34h3.09c0.05,0.5,0.08,1.12,0.08,1.87h0.04c0.51-1.22,1.37-2.04,3.15-2.04c2.47,0,3.28,1.79,3.28,4.03
			v7.32h-3.39V67.82z"/>
		<path class="st1" d="M266.02,63.52h1.93v-2.29l3.31-1.05v3.34h2.19v2.39h-2.19v5.13c0,1.09,0.49,1.4,1.13,1.4
			c0.47,0,0.77-0.09,1.12-0.24v2.38c-0.34,0.13-1.27,0.3-2.36,0.3c-1.76,0-3.28-0.86-3.28-3.3v-5.67h-1.85V63.52z"/>
		<path class="st1" d="M277.97,68.16c0-0.6,0-2.75,1.74-2.75c1.4,0,1.76,1.34,1.76,2.75H277.97z M284.56,69.2
			c0-5.84-3.84-5.84-4.85-5.84c-3.19,0-4.96,2.72-4.96,5.73c0,3.41,1.74,5.79,5.67,5.79c1.16,0,2.44-0.24,3.54-0.65l-0.07-2.55
			c-0.83,0.45-1.99,0.88-3.15,0.88c-1.91,0-2.77-1.22-2.77-2.55h6.59V69.2z"/>
		<path class="st1" d="M286.34,65.87c0-1.07-0.02-1.76-0.09-2.34h3.08c0.03,0.67,0.07,1.36,0.09,2.02h0.04
			c0.69-1.21,1.16-2.19,3.11-2.19h0.5v3.13c-0.37-0.09-0.67-0.13-1.14-0.13c-1.98,0-2.21,1.72-2.21,3.35v5h-3.39V65.87z"/>
		<g>
			<path class="st1" d="M256.21,21.73h-4.75v-3.49h-4.61v4.99h-7.23v-4.99h-4.55v15.11c0,0.83,0.73,1.52,1.62,1.52h14.77v-3.38h4.75
				v4.82h4.56V17.9h-4.56V21.73z M246.86,31.47h-7.23v-4.84h7.23V31.47z M251.46,28.12V25.1h4.75v3.02H251.46z"/>
			<path class="st1" d="M270.47,41.28v7.59c0,0.84,0.73,1.52,1.62,1.52l20.22-0.01v-3.46h-17.18v-5.64H270.47z"/>
			<polygon class="st1" points="270.47,39.13 275.12,39.13 275.12,34.75 287.83,34.75 287.83,36.17 280.9,36.17 280.9,39.66 
				287.83,39.66 287.83,42.98 292.39,42.98 292.39,18 287.83,18 287.83,31.26 265.89,31.26 265.89,34.75 270.47,34.75 			"/>
			<polygon class="st1" points="226.8,17.9 221.67,17.9 221.67,39.72 226.8,39.72 226.8,28.67 231.46,28.67 231.46,25.24 
				226.8,25.24 			"/>
			<polygon class="st1" points="193.47,17.9 188.35,17.9 188.35,51.06 193.47,51.06 193.47,30.71 198.14,30.71 198.14,27.28 
				193.47,27.28 			"/>
			<path class="st1" d="M176.17,42.79c6.26,0,8.36-7.21,8.36-12.41c0-5.19-2.1-12.4-8.36-12.4c-6.27,0-8.36,7.21-8.36,12.4
				C167.81,35.59,169.9,42.79,176.17,42.79z M176.17,21.42c2.87,0,3.35,5.23,3.35,8.96c0,3.73-0.48,8.97-3.35,8.97
				c-2.87,0-3.35-5.24-3.35-8.97C172.82,26.65,173.3,21.42,176.17,21.42z"/>
			<path class="st1" d="M209.81,30.35c0.27,0.97,3.9,5.06,6.85,6.61l2.28-2.91c-2.15-1.38-3.79-3.18-4.94-5.41
				c-1.15-2.22-1.71-5.03-1.69-8.45v-1.96h-5.36v1.96c0.03,3.41-0.54,6.23-1.69,8.45c-1.15,2.23-2.8,4.03-4.94,5.41l2.27,2.91
				C205.55,35.41,209.54,31.32,209.81,30.35z"/>
			<path class="st1" d="M206.32,38.61v10.16c0,0.86,0.7,1.55,1.55,1.55l19.06,0v-3.54h-15.5v-8.17H206.32z"/>
			<path class="st1" d="M260.64,44.63c0-4.46-5.24-7.08-11.71-7.08c-6.47,0-11.71,2.62-11.71,7.08c0,4.47,5.24,7.09,11.71,7.09
				C255.4,51.72,260.64,49.11,260.64,44.63z M242.44,44.63c0-2.62,2.9-3.96,6.49-3.96c3.59,0,6.5,1.38,6.5,3.96
				c0,2.59-2.91,3.96-6.5,3.96C245.35,48.59,242.44,47.26,242.44,44.63z"/>
			<path class="st1" d="M275.88,29.78c4.96,0,8.99-2.23,8.99-6.15c0-3.92-4.03-6.14-8.99-6.14c-4.97,0-8.99,2.25-8.99,6.14
				C266.88,27.54,270.91,29.78,275.88,29.78z M275.87,20.18c2.14,0,3.87,1.16,3.87,3.45s-1.73,3.46-3.87,3.46
				c-2.14,0-3.87-1.19-3.87-3.46C272,21.37,273.74,20.18,275.87,20.18z"/>
			<path class="st1" d="M146.06,35.89h-0.62h-9.42v3.46h19.58v1.99h-19.58l0,7.34c0,0.84,0.72,1.51,1.61,1.51l23.6,0.01v-3.48
				h-20.07v-2.17h19.57v-8.65h-9.54V33.8h12.44v-3.5h-30.01v3.5h12.44V35.89z"/>
			<polygon class="st1" points="116.19,29.67 123.36,29.67 123.36,51.1 128.5,51.1 128.5,17.9 123.36,17.9 123.36,26.31 
				116.19,26.31 			"/>
			<path class="st1" d="M136.07,23.11c0,3.83,5.62,5.99,12.55,5.99c6.93,0,12.55-2.17,12.55-5.99c0-3.8-5.61-5.98-12.55-5.98
				C141.69,17.14,136.07,19.31,136.07,23.11z M155.29,23.13c0,1.91-2.99,2.9-6.67,2.9c-3.69,0-6.67-0.97-6.67-2.9
				c0-1.93,2.99-2.91,6.67-2.91C152.31,20.22,155.29,21.21,155.29,23.13z"/>
			<path class="st1" d="M109.31,36.93c0.28,0.97,4.42,5.48,7.42,6.61l2.39-2.91c-2.24-1.38-3.97-3.18-5.19-5.41
				c-1.21-2.22-2.09-5.8-2.06-9.2v-7.78h-5.11v7.78c0.03,3.41-0.85,6.98-2.06,9.2c-1.21,2.23-2.94,4.02-5.2,5.41l2.4,2.91
				C104.89,42.41,109.03,37.9,109.31,36.93z"/>
		</g>
	</g>
</g>
</svg>
